<svg xmlns="http://www.w3.org/2000/svg" xmlns:xlink="http://www.w3.org/1999/xlink" width="134.732" height="19.132" viewBox="0 0 134.732 19.132">
  <defs>
    <linearGradient id="linear-gradient" x1="0.722" x2="0.175" y2="1" gradientUnits="objectBoundingBox">
      <stop offset="0" stop-color="#33d35e"/>
      <stop offset="1" stop-color="#2ab6d9"/>
    </linearGradient>
  </defs>
  <g id="footer-logo" transform="translate(2595.987 -1275.286)">
    <g id="logo" transform="translate(-2595.987 1275.286)">
      <path id="Path_1" data-name="Path 1" d="M37.575,15.387a5.813,5.813,0,0,0,5.779-4.094H39.57a2.216,2.216,0,0,1-2,1.035,2.142,2.142,0,0,1-2.253-1.921h8.2A6.992,6.992,0,0,0,43.6,9.4a5.733,5.733,0,0,0-6.021-5.777,5.758,5.758,0,0,0-6,5.873,5.789,5.789,0,0,0,6,5.89ZM39.851,8.3H35.388a2.137,2.137,0,0,1,2.187-1.7,2.219,2.219,0,0,1,2.276,1.7Zm10.628,7.084a5.226,5.226,0,0,0,3.33-1.154l.326.781h2.939V3.974H54.241l-.388.854a5.238,5.238,0,0,0-3.373-1.187,5.6,5.6,0,0,0-5.788,5.851,5.629,5.629,0,0,0,5.788,5.894Zm.509-3.366A2.427,2.427,0,0,1,48.517,9.5a2.471,2.471,0,1,1,4.941,0,2.427,2.427,0,0,1-2.47,2.518ZM63.73,15.386c2.932,0,4.879-1.509,4.879-3.816,0-2.8-2.318-3.161-4.062-3.471-1.049-.187-1.893-.334-1.893-.961,0-.512.41-.814,1.02-.814.689,0,1.162.327,1.162,1.032H68.4c-.043-2.236-1.864-3.731-4.676-3.731-2.827,0-4.713,1.427-4.713,3.641,0,2.677,2.269,3.194,3.981,3.47,1.06.176,1.9.357,1.9.994,0,.57-.527.854-1.084.854a1.137,1.137,0,0,1-1.282-1.179H58.858c.035,2.392,1.863,3.981,4.872,3.981Zm7.865,3.746c2.851,0,4.218-1.221,5.706-4.6L81.927,3.986H77.843l-2.184,6.081L73.317,3.986H69.186l4.562,10.127c-.515,1.373-.954,1.752-2.408,1.752H70.293v3.267Zm17.967-3.746a5.608,5.608,0,0,0,5.8-5.872,5.607,5.607,0,0,0-5.8-5.872,5.177,5.177,0,0,0-2.743.761V0H83.061V15.025h2.813l.359-.82a5.125,5.125,0,0,0,3.329,1.181Zm-.508-3.366a2.424,2.424,0,0,1-2.471-2.505,2.471,2.471,0,1,1,4.941,0,2.428,2.428,0,0,1-2.47,2.505Zm13.2,3.366a5.226,5.226,0,0,0,3.33-1.154l.326.781h2.939V3.974H106.02l-.389.854a5.236,5.236,0,0,0-3.373-1.187A5.6,5.6,0,0,0,96.47,9.493a5.628,5.628,0,0,0,5.787,5.894Zm.509-3.366A2.427,2.427,0,0,1,100.3,9.5a2.471,2.471,0,1,1,4.942,0,2.427,2.427,0,0,1-2.471,2.518Zm12.286,3.005V9.13c0-1.405.682-2.233,1.867-2.233.957,0,1.44.638,1.44,1.923v6.2h3.8V8.3c0-2.813-1.683-4.634-4.246-4.634a4.592,4.592,0,0,0-3.476,1.464l-.521-1.138H111.25V15.026h3.8Zm13.349,0V10.356l2.765,4.668h4.482L131.86,9.248l3.44-5.262H131.03L128.4,8.311V0h-3.8V15.025h3.8Z" transform="translate(-0.916)" fill="#fff"/>
      <g id="Group_1" data-name="Group 1">
        <path id="Path_2" data-name="Path 2" d="M10.489,0,0,19.132H5.812L16.3,0Z" fill="#fff" fill-rule="evenodd"/>
        <path id="Path_3" data-name="Path 3" d="M17.857,0,7.368,19.132H13.18L23.67,0Z" transform="translate(-0.214)" fill="#fff" fill-rule="evenodd" opacity="0.5"/>
        <path id="Path_4" data-name="Path 4" d="M25.226,0,14.737,19.132h5.812L31.038,0Z" transform="translate(-0.428)" fill="#fff" fill-rule="evenodd" opacity="0.15"/>
      </g>
    </g>
    <g id="logo-2" data-name="logo" transform="translate(-2595.987 1275.286)">
      <g id="Group_1-2" data-name="Group 1">
        <path id="Path_2-2" data-name="Path 2" d="M10.489,0,0,19.132H5.812L16.3,0Z" fill-rule="evenodd" fill="url(#linear-gradient)"/>
        <path id="Path_3-2" data-name="Path 3" d="M17.857,0,7.368,19.132H13.18L23.67,0Z" transform="translate(-0.214)" fill-rule="evenodd" opacity="0.5" fill="url(#linear-gradient)"/>
        <path id="Path_4-2" data-name="Path 4" d="M25.226,0,14.737,19.132h5.812L31.038,0Z" transform="translate(-0.428)" fill-rule="evenodd" opacity="0.15" fill="url(#linear-gradient)"/>
      </g>
    </g>
  </g>
</svg>
